<svg xmlns="http://www.w3.org/2000/svg" viewBox="0 0 200 200" width="200" height="200">
  <g transform="translate(10, 50)">
    <path d="M135,19l-9.72-2.76.25-3.56a1.49,1.49,0,0,0-.17-.8l-3.46-6.45a1.46,1.46,0,0,0-1.29-.78H94.35A1.46,1.46,0,0,0,93,5.5l-2.76,5.83a1.54,1.54,0,0,0-.14.7l.19,4.18L80.48,19a1.46,1.46,0,0,0-1.07,1.41V76.73a1.47,1.47,0,0,0,1.47,1.47h53.75a1.47,1.47,0,0,0,1.47-1.47V20.41A1.48,1.48,0,0,0,135,19ZM100.5,75.26H82.35V21.52l8.25-2.34,3.6,19.35a1.47,1.47,0,0,0,2.52.74l3.78-4.08Zm7.67-52.52c-2.09-3.57-4.86-8.36-5.41-9.48a.59.59,0,0,1,0-.08,17.81,17.81,0,0,1,5-.4h.2a22.69,22.69,0,0,1,5.66.43c-.06.14-.14.29-.2.42s-.2.41-.3.63C112.42,15.62,109.93,19.83,108.17,22.74Zm-4.73,9.32,4.41-4.44L112.06,32V75.26h-8.62Zm11.06-1.69,0,0-4.63-4.79c1.35-2.22,5-8.2,5.81-10.09.08-.18.17-.36.26-.53.43-.88,1-2.08.3-3.25-.85-1.36-3-1.83-8.39-1.84h-.21c-4.86,0-6.78.45-7.63,1.81a3,3,0,0,0,.07,2.9c.71,1.45,4.46,7.88,6.06,10.59l-5,5.07-4.58,4.91-3.35-18h.09l-.22-4.88,2.2-4.67h24.48l2.83,5.31-.28,4h.06a1.56,1.56,0,0,0-.06.15L119,35.12l-4.34-4.67Zm18.66,44.89H115V35.19l3.78,4.08a1.5,1.5,0,0,0,1.49.41,1.48,1.48,0,0,0,1-1.15l3.6-19.35,8.26,2.34Z" fill="black"/>
    <path d="M98.19,98.16a77.76,77.76,0,0,1-14.14-9.87c-5.69-4.9-11.44-10.07-24.19-23.71-5.34-5.71-9.34-8.49-12.25-8.49a3.89,3.89,0,0,0-2.53.89c-2,1.51-10,9.29-8.77,17a2.73,2.73,0,0,0,.77,1.75c-.22.85,0,2.44,2.3,5.49l.22.22a15.7,15.7,0,0,1,5.67,13.42l-.15,1,.9.49a6.54,6.54,0,0,0,2.93.69,6.1,6.1,0,0,0,2.54-.56l.95-.44-.1-1c-.17-1.76-.11-5.53,1-7.24a26.57,26.57,0,0,1,2.06,2,52.29,52.29,0,0,1,6,8.63c1.13,1.9,1.51,2.54,2.12,2.79l.11.08c4,2.53,12.28,3.82,24.62,3.82h0c2.53,0,5.26-.06,8.11-.17h.24l.24-.09c.78-.31,3.35-1.47,3.5-3.56C100.41,100.46,100.08,99.23,98.19,98.16ZM57.71,66.59c12.11,13,18,18.34,23.43,23.07.7.86.85,1.42.74,1.65a2.38,2.38,0,0,1-1.36.87c-2.45-2.37-7.89-5.61-12.89-7.61a14.41,14.41,0,0,1-6.82-5.17C58.22,75.13,53.51,69,50.28,64.86c-1.37-1.78-2.46-3.19-3-4a1.59,1.59,0,0,1-.42-1.16c.09-.29.5-.55.76-.67h0C48.52,59,51.34,59.77,57.71,66.59Zm19,26.27h-.09c-6.1.46-9.35-2.53-11.81-6.35.54.28,1.11.54,1.73.79A49.49,49.49,0,0,1,76.71,92.86ZM49.34,94.12a3.65,3.65,0,0,1-1.06,0,18.88,18.88,0,0,0-6.64-14.74l-.21-.29.52.36c2.5,1.69,6.07,4.11,9.1,6.51C49.38,88.26,49.26,92.12,49.34,94.12ZM96,102c-2.71.11-5.3.16-7.72.16h0c-11.44,0-19.62-1.2-23-3.37l-.18-.1c-.21-.29-.68-1.08-1.09-1.78a55.91,55.91,0,0,0-6.39-9.09c-3.24-3.6-9.69-8-14-10.87-1.48-1-2.89-2-3.2-2.25s-.78-.68-1-.87l-.14-.1c0-.06,0-.12,0-.2-.67-4.34,2.6-9,5.15-11.83a5.44,5.44,0,0,0,.5.84c.6.85,1.7,2.28,3.1,4.09,3.11,4,7.6,9.85,10.13,13.93,0,.08.13.23.25.42.26.41.49.82.7,1.19l.73,1.38c2.76,5.22,6.49,12.27,15.57,12.27.46,0,.94,0,1.43,0,1.06,0,6.43-.32,7.78-3.26a80.82,80.82,0,0,0,12.19,8.18,2.63,2.63,0,0,1,.6.42A4.62,4.62,0,0,1,96,102Z" fill="black"/>
  </g>
</svg>
