<?xml version="1.0" encoding="UTF-8"?>
<svg version="1.1" xmlns="http://www.w3.org/2000/svg" width="1458" height="1460">
<path d="M0 0 C481.14 0 962.28 0 1458 0 C1458 481.8 1458 963.6 1458 1460 C976.86 1460 495.72 1460 0 1460 C0 978.2 0 496.4 0 0 Z " fill="none" transform="translate(0,0)"/>
<path d="M0 0 C11.74158775 11.13816568 19.61143113 25.48651611 20.06835938 41.77539062 C20.08705078 42.65388672 20.10574219 43.53238281 20.125 44.4375 C20.19364258 45.67983398 20.19364258 45.67983398 20.26367188 46.94726562 C20.53984186 63.09720583 11.50599741 79.52145462 5.4375 94.125 C4.64389076 96.04791287 3.85093697 97.97109637 3.05859375 99.89453125 C1.41852762 103.87441521 -0.22429833 107.85314242 -1.86914062 111.83105469 C-5.33542703 120.22009939 -8.76705181 128.62328709 -12.19958496 137.02618408 C-14.06897273 141.60143733 -15.94086956 146.17566383 -17.8125 150.75 C-18.56251188 152.58332847 -19.31251188 154.4166618 -20.0625 156.25 C-94.31250107 337.75000262 -94.31250107 337.75000262 -151.68746948 477.99992371 C-152.43757279 479.8335107 -153.18767452 481.66709835 -153.93777466 483.50068665 C-155.81118104 488.08014422 -157.68461483 492.65959057 -159.55810547 497.23901367 C-162.9521553 505.53525714 -166.34599685 513.83158552 -169.73883057 522.12832642 C-177.5804634 541.30399084 -185.4281022 560.47714245 -193.29455566 579.64263916 C-200.88858391 598.1452501 -208.45992831 616.65712283 -216.03027344 635.16943359 C-219.41587436 643.44829996 -222.80273855 651.72664953 -226.18951416 660.0050354 C-228.06389515 664.58666884 -229.93819336 669.16833614 -231.8125 673.75 C-232.5624996 675.5833335 -233.3124996 677.41666683 -234.0625 679.25 C-234.43375 680.1575 -234.805 681.065 -235.1875 682 C-292.56249999 822.24999998 -292.56249999 822.24999998 -293.68730164 824.9994812 C-294.43799453 826.8345309 -295.1886557 828.66959359 -295.93928528 830.50466919 C-297.80342522 835.06184855 -299.66809937 839.61880781 -301.53393555 844.17529297 C-305.0391093 852.73676484 -308.53874097 861.30038875 -312.02053833 869.87139893 C-313.65874081 873.90320147 -315.29984165 877.9338214 -316.94116211 881.96435547 C-317.7199535 883.8791319 -318.49733702 885.79448165 -319.27319336 887.71044922 C-327.71650963 908.5591019 -335.97016267 926.4292194 -357.42578125 936.58203125 C-370.60365279 941.91380877 -384.54664475 944.05486993 -398.3125 939.75 C-399.20710937 939.47027344 -400.10171875 939.19054688 -401.0234375 938.90234375 C-418.29413659 933.05869625 -429.67384789 920.09785654 -440.375 905.875 C-441.50712905 904.3822939 -442.63996625 902.89012467 -443.7734375 901.3984375 C-444.35319336 900.63499023 -444.93294922 899.87154297 -445.53027344 899.08496094 C-448.49359041 895.20260977 -451.49657477 891.3513547 -454.5 887.5 C-460.92175658 879.25928813 -467.29660103 870.98405499 -473.65625 862.6953125 C-478.51989731 856.36309636 -483.40730199 850.05009723 -488.3125 843.75 C-494.79471026 835.42443295 -501.23324055 827.06663482 -507.65625 818.6953125 C-512.51989731 812.36309636 -517.40730199 806.05009723 -522.3125 799.75 C-528.79471026 791.42443295 -535.23324055 783.06663482 -541.65625 774.6953125 C-546.51989731 768.36309636 -551.40730199 762.05009723 -556.3125 755.75 C-562.79471026 747.42443295 -569.23324055 739.06663482 -575.65625 730.6953125 C-581.12375466 723.57690545 -586.62499914 716.48551187 -592.13964844 709.40356445 C-596.34289666 704.00338365 -600.52043305 698.584403 -604.6875 693.15625 C-607.87877991 689.00758611 -611.09674136 684.87969753 -614.3125 680.75 C-620.00626907 673.43718951 -625.67023108 666.10261074 -631.3125 658.75 C-633.04104927 656.49952506 -634.77043183 654.24969192 -636.5 652 C-637.25667969 651.01515625 -638.01335937 650.0303125 -638.79296875 649.015625 C-639.18871094 648.50765381 -639.58445312 647.99968262 -639.9921875 647.47631836 C-640.97141537 646.19597068 -641.92609458 644.89676822 -642.8671875 643.58813477 C-646.96789478 638.01828107 -651.27022095 634.11026759 -656.9375 630.1875 C-658.62892818 628.97971664 -660.31898226 627.77000713 -662.0078125 626.55859375 C-663.31540527 625.62635986 -663.31540527 625.62635986 -664.64941406 624.67529297 C-669.10416222 621.45470771 -673.45421888 618.09932248 -677.8125 614.75 C-684.43086562 609.68207367 -691.0875621 604.67562341 -697.8125 599.75 C-705.43990017 594.1633758 -712.96894565 588.45723662 -720.4765625 582.7109375 C-726.21152967 578.32935491 -731.9901721 574.01467721 -737.8125 569.75 C-745.41227847 564.1816962 -752.92239458 558.50419826 -760.40625 552.78125 C-766.35056086 548.2376604 -772.32061252 543.7306331 -778.3125 539.25 C-785.19715926 534.10176712 -792.04617652 528.90954149 -798.875 523.6875 C-806.24172755 518.0566729 -813.66853354 512.51779819 -821.14868164 507.03881836 C-827.99093673 502.01529165 -834.73620329 496.86998077 -841.4765625 491.7109375 C-847.2115291 487.32935535 -852.99015193 483.0146493 -858.8125 478.75 C-866.50041141 473.11762386 -874.10237894 467.38008206 -881.66552734 461.58129883 C-885.68604112 458.50090333 -889.71414943 455.43870612 -893.80859375 452.45703125 C-909.93884132 440.69465195 -921.05872734 429.63350883 -926.3125 409.75 C-926.489021 409.11562012 -926.66554199 408.48124023 -926.84741211 407.82763672 C-930.06629667 393.44826266 -926.86878388 377.16681243 -919.3125 364.75 C-910.33822553 351.69650986 -899.56206951 343.95031434 -885.24609375 337.5859375 C-884.37273376 337.1955127 -883.49937378 336.80508789 -882.59954834 336.40283203 C-873.736549 332.46012032 -864.80791961 328.67638851 -855.86279297 324.92456055 C-850.9428887 322.86094595 -846.0264752 320.78903483 -841.109375 318.71875 C-840.1133728 318.29968384 -839.11737061 317.88061768 -838.09118652 317.44885254 C-828.48786088 313.40701975 -818.89907565 309.33136334 -809.3125 305.25 C-795.30221554 299.28737118 -781.27969345 293.35430748 -767.25 287.4375 C-750.77150038 280.48781008 -734.30944504 273.500327 -717.85641479 266.49057007 C-702.59061575 259.98734692 -687.31016868 253.51965358 -672.02050781 247.07275391 C-657.60554721 240.9938829 -643.20499034 234.881871 -628.8125 228.75 C-612.40419912 221.75937184 -595.98254249 214.80127181 -579.54882812 207.87060547 C-566.46129542 202.35086362 -553.38228038 196.8116432 -540.3125 191.25 C-526.30193747 185.28802148 -512.2796959 179.35430852 -498.25 173.4375 C-482.75840097 166.90402838 -467.28019285 160.33986397 -451.8125 153.75 C-435.40418931 146.75939471 -418.98254259 139.80127185 -402.54882812 132.87060547 C-389.46129542 127.35086362 -376.38228038 121.8116432 -363.3125 116.25 C-349.30193747 110.28802148 -335.2796959 104.35430852 -321.25 98.4375 C-304.77150038 91.48781008 -288.30944504 84.500327 -271.85641479 77.49057007 C-256.59061575 70.98734692 -241.31016868 64.51965358 -226.02050781 58.07275391 C-211.60554721 51.9938829 -197.20499034 45.881871 -182.8125 39.75 C-165.48738957 32.36877231 -148.14714276 25.02432684 -130.79370117 17.70996094 C-121.59957717 13.83360706 -112.41100641 9.94495075 -103.234375 6.02734375 C-102.33508774 5.64375198 -101.43580048 5.26016022 -100.50926208 4.86494446 C-96.28016406 3.06093975 -92.05216098 1.25447198 -87.82641602 -0.55737305 C-80.12252805 -3.85220983 -72.3919315 -7.07671359 -64.60546875 -10.171875 C-63.87612625 -10.46757385 -63.14678375 -10.76327271 -62.39533997 -11.06793213 C-41.28006247 -19.34761699 -17.23675233 -13.92593059 0 0 Z " fill="#19426F" transform="translate(1173.3125,274.25)"/>
<path d="M0 0 C481.14 0 962.28 0 1458 0 C1458 481.8 1458 963.6 1458 1460 C976.86 1460 495.72 1460 0 1460 C0 978.2 0 496.4 0 0 Z M3 4 C3 483.82 3 963.64 3 1458 C482.82 1458 962.64 1458 1457 1458 C1457 978.18 1457 498.36 1457 4 C977.18 4 497.36 4 3 4 Z " fill="#8F8F8F" transform="translate(0,0)"/>
</svg>
